<svg version="1.2" xmlns="http://www.w3.org/2000/svg" viewBox="0 0 1254 1254" width="1254" height="1254">
	<style>
		.s0 { fill: #021240 } 
		.s1 { fill: #cfa24f } 
	</style>
	<path id="Preencher com Cor Sólida 2" fill-rule="evenodd" class="s0" d="m594 4.11c-6.33 0.46-17.8 1.54-25.5 2.42-7.7 0.87-21.88 2.71-31.5 4.08-9.63 1.38-25.38 4.06-35 5.97-9.63 1.9-26.05 5.73-36.5 8.51-10.45 2.78-24.63 6.88-31.5 9.11-6.88 2.23-19.93 6.86-29 10.28-9.07 3.42-19.88 7.69-24 9.49-4.13 1.79-12.45 5.54-18.5 8.32-6.05 2.78-18.2 8.87-27 13.53-8.8 4.67-21.18 11.64-27.5 15.5-6.32 3.87-17.57 11.08-25 16.03-7.43 4.96-17.77 12.16-23 16-5.22 3.85-14 10.63-19.5 15.06-5.5 4.44-15.4 12.79-22 18.57-6.6 5.77-17.57 15.9-24.38 22.51-6.8 6.6-18.3 18.76-25.56 27.01-7.25 8.25-16.79 19.5-21.2 25-4.42 5.5-11.85 15.18-16.53 21.5-4.68 6.32-11.66 16.23-15.51 22-3.85 5.77-9.82 15-13.28 20.5-3.45 5.5-8.87 14.5-12.04 20-3.17 5.5-9.01 16.07-12.98 23.5-3.97 7.43-10.81 21.15-15.21 30.5-4.4 9.35-11.29 25.32-15.32 35.5-4.03 10.18-9.85 26.15-12.94 35.5-3.08 9.35-7.61 24.2-10.05 33-2.45 8.8-6.01 23.2-7.93 32-1.92 8.8-4.83 23.87-6.46 33.5-1.63 9.62-3.67 23.12-4.53 30-0.87 6.87-2.08 18.12-2.7 25-0.62 6.87-1.16 20.6-1.21 30.5-0.04 9.9 0.49 26.1 1.19 36 0.7 9.9 2.39 25.87 3.76 35.5 1.36 9.62 4.04 25.83 5.95 36 1.92 10.17 5.93 28.4 8.92 40.5 2.99 12.1 7.74 29.42 10.56 38.5 2.81 9.08 8.06 24.37 11.67 34 3.6 9.62 9.47 24.25 13.04 32.5 3.56 8.25 10.53 23.1 15.49 33 4.95 9.9 12.18 23.62 16.07 30.5 3.88 6.87 10.86 18.58 15.51 26 4.65 7.42 12.6 19.35 17.67 26.5 5.07 7.15 14.61 19.75 21.21 28 6.59 8.25 15.95 19.5 20.79 25 4.84 5.5 16.94 18.11 26.9 28.03 9.95 9.91 22.82 22.1 28.6 27.07 5.78 4.97 15.9 13.32 22.5 18.56 6.6 5.23 17.4 13.35 24 18.03 6.6 4.69 16.73 11.58 22.5 15.31 5.77 3.73 17.02 10.61 25 15.28 7.98 4.67 22.37 12.44 32 17.28 9.62 4.84 24.48 11.79 33 15.46 8.52 3.66 20.68 8.59 27 10.95 6.32 2.36 19.37 6.85 29 9.97 9.62 3.12 25.37 7.66 35 10.09 9.62 2.43 22 5.34 27.5 6.47 5.5 1.13 14.95 2.93 21 3.99 6.05 1.06 18.2 2.83 27 3.93 8.8 1.11 23.87 2.79 33.5 3.73 12 1.18 26.77 1.73 47 1.75 20.64 0.03 35.06-0.49 48-1.72 10.17-0.96 24.12-2.42 31-3.24 6.87-0.82 18.35-2.41 25.5-3.54 7.15-1.13 20.2-3.63 29-5.55 8.8-1.92 22.75-5.29 31-7.49 8.25-2.21 21.98-6.29 30.5-9.07 8.52-2.79 21.12-7.2 28-9.81 6.87-2.62 19.48-7.78 28-11.48 8.52-3.69 22.92-10.47 32-15.06 9.08-4.58 22.8-12.01 30.5-16.5 7.7-4.5 20.98-12.79 29.5-18.44 8.52-5.64 21.35-14.65 28.5-20.01 7.15-5.36 19.3-15.02 27-21.48 7.7-6.46 19.63-17.09 26.51-23.63 6.89-6.53 17.24-16.83 23.01-22.88 5.77-6.05 15.63-17.08 21.92-24.5 6.28-7.42 16.82-20.7 23.42-29.5 6.6-8.8 16.57-22.98 22.18-31.5 5.6-8.52 13.11-20.45 16.69-26.5 3.58-6.05 9.94-17.41 14.14-25.25 4.2-7.84 10.72-20.89 14.5-29 3.78-8.11 8.34-18.13 10.14-22.25 1.8-4.13 5.27-12.67 7.72-19 2.45-6.33 6.91-18.7 9.9-27.5 3-8.8 7.22-22.08 9.37-29.5 2.15-7.42 5.69-20.92 7.87-30 2.18-9.08 5.1-22.35 6.48-29.5 1.38-7.15 3.47-19.3 4.64-27 1.16-7.7 2.74-19.85 3.49-27 0.76-7.15 1.91-23.35 2.56-36 0.89-17.39 0.9-28.12 0.04-44-0.63-11.55-1.83-27.3-2.67-35-0.84-7.7-2.86-21.88-4.5-31.5-1.63-9.63-4.52-24.48-6.42-33-1.9-8.52-5.29-22.25-7.54-30.5-2.25-8.25-6.59-22.65-9.65-32-3.06-9.35-8.59-24.88-12.3-34.5-3.71-9.63-8.78-22-11.26-27.5-2.49-5.5-6.65-14.5-9.24-20-2.6-5.5-8.34-16.75-12.76-25-4.42-8.25-11.66-21.07-16.08-28.5-4.43-7.43-12.18-19.8-17.24-27.5-5.06-7.7-13.89-20.3-19.63-28-5.73-7.7-15.04-19.63-20.68-26.5-5.64-6.88-15.96-18.75-22.93-26.39-6.97-7.64-18.76-19.57-26.18-26.52-7.42-6.95-18-16.47-23.5-21.16-5.5-4.69-14.27-11.9-19.5-16.02-5.23-4.13-12.88-9.99-17-13.03-4.13-3.03-14.25-10.02-22.5-15.53-8.25-5.51-20.17-13.08-26.5-16.83-6.33-3.75-17.58-10.04-25-13.99-7.42-3.94-20.92-10.6-30-14.78-9.08-4.19-23.92-10.52-33-14.08-9.08-3.55-24.83-9.15-35-12.44-10.17-3.29-26.6-8.03-36.5-10.54-9.9-2.51-23.63-5.7-30.5-7.09-6.88-1.4-18.13-3.44-25-4.55-6.88-1.11-21.73-3.13-33-4.5-11.27-1.36-27.02-2.94-35-3.51-7.98-0.56-22.6-0.96-32.5-0.89-9.9 0.08-23.17 0.51-29.5 0.96zm-0.5 14.58c-2.75 0.18-12.42 1.04-21.5 1.9-9.08 0.86-23.92 2.66-33 4-9.08 1.34-23.25 3.8-31.5 5.47-8.25 1.66-21.98 4.78-30.5 6.93-8.52 2.15-24.05 6.67-34.5 10.05-10.45 3.37-28.23 9.79-39.5 14.24-11.27 4.46-31.08 13.39-44 19.83-12.93 6.44-30.02 15.62-38 20.39-7.98 4.78-21.48 13.35-30 19.06-8.52 5.7-22.09 15.45-30.14 21.66-8.06 6.2-20.43 16.2-27.5 22.21-7.07 6.01-21.89 19.96-32.92 31-11.04 11.04-24.13 24.79-29.1 30.57-4.97 5.77-14.12 17.02-20.34 25-6.21 7.98-14.97 19.68-19.46 26-4.49 6.32-11.77 17.12-16.19 24-4.41 6.87-11.54 18.57-15.83 26-4.3 7.43-12.14 22.05-17.44 32.5-5.3 10.45-13.06 27.1-17.25 37-4.2 9.9-10.11 24.75-13.14 33-3.04 8.25-7.31 20.85-9.51 28-2.19 7.15-5.59 19.07-7.56 26.5-1.96 7.43-5.12 20.93-7.03 30-1.9 9.08-4.59 23.92-5.99 33-1.4 9.08-3.21 23.25-4.02 31.5-0.81 8.25-1.78 24-2.15 35-0.39 11.71-0.19 28.5 0.48 40.5 0.63 11.27 1.82 26.58 2.65 34 0.83 7.42 2.86 21.83 4.51 32 1.65 10.17 4.58 25.7 6.51 34.5 1.92 8.8 4.64 20.27 6.04 25.5 1.41 5.23 4.52 16.02 6.91 24 2.4 7.98 6.59 20.8 9.31 28.5 2.72 7.7 6.83 18.73 9.14 24.5 2.3 5.77 5.55 13.65 7.22 17.5 1.67 3.85 5.51 12.4 8.54 19 3.03 6.6 9.11 18.75 13.51 27 4.41 8.25 10.96 19.95 14.56 26 3.61 6.05 10.61 17.08 15.55 24.5 4.95 7.42 11.47 16.87 14.49 21 3.02 4.12 8.66 11.55 12.55 16.5 3.88 4.95 12.04 14.85 18.14 22 6.1 7.15 16.46 18.58 23.02 25.41 6.57 6.82 17.56 17.59 24.44 23.94 6.87 6.34 17.9 16.03 24.5 21.53 6.6 5.5 17.85 14.36 25 19.68 7.15 5.33 19.52 13.96 27.5 19.18 7.98 5.23 20.8 13.18 28.5 17.68 7.7 4.5 20.52 11.49 28.5 15.53 7.98 4.04 19.23 9.47 25 12.06 5.77 2.6 15.9 6.88 22.5 9.51 6.6 2.64 19.65 7.49 29 10.79 9.35 3.3 24.43 8.03 33.5 10.52 9.07 2.48 23.7 6.1 32.5 8.04 8.8 1.94 22.98 4.66 31.5 6.06 8.52 1.39 23.6 3.44 33.5 4.54 9.9 1.11 26.1 2.46 36 3 9.9 0.55 25.65 0.99 35 1 9.35 0 24.87-0.44 34.5-0.99 9.62-0.54 24.02-1.68 32-2.52 7.98-0.85 19.23-2.21 25-3.04 5.77-0.82 17.7-2.85 26.5-4.51 8.8-1.66 23.87-4.99 33.5-7.4 9.62-2.4 24.02-6.4 32-8.88 7.98-2.47 20.8-6.81 28.5-9.63 7.7-2.82 19.85-7.62 27-10.66 7.15-3.05 19.3-8.56 27-12.25 7.7-3.69 20.75-10.45 29-15.02 8.25-4.57 20.4-11.7 27-15.84 6.6-4.14 17.17-11.13 23.5-15.54 6.33-4.41 16.23-11.63 22-16.05 5.77-4.41 14.77-11.59 20-15.94 5.23-4.35 16.25-14.15 24.5-21.78 8.25-7.62 19.09-18.26 24.09-23.64 5-5.38 12.62-13.83 16.94-18.78 4.32-4.95 11.97-14.17 17-20.5 5.03-6.33 13.35-17.35 18.49-24.5 5.14-7.15 12.56-17.95 16.5-24 3.93-6.05 10.44-16.63 14.45-23.5 4.02-6.88 10.97-19.7 15.46-28.5 4.48-8.8 10.91-22.3 14.28-30 3.37-7.7 8.37-19.63 11.1-26.5 2.73-6.88 7.53-19.92 10.65-29 3.13-9.08 8.14-25.27 11.14-36 3-10.73 7-26.7 8.88-35.5 1.89-8.8 4.56-23.88 5.93-33.5 1.38-9.63 2.95-22.67 3.51-29 0.56-6.33 1.08-16.67 1.16-23 0.11-8.84-0.17-11.65-1.22-12.15-0.75-0.36-4.28-2.01-7.86-3.67-4.15-1.92-8.11-4.75-10.95-7.84-2.45-2.66-5.56-7.32-6.91-10.34-1.35-3.02-2.67-8.2-2.92-11.5-0.25-3.3 0.12-8.7 0.83-12 0.82-3.86 2.74-8.14 5.37-12 2.46-3.62 6.26-7.49 9.58-9.76 3.54-2.41 8.08-4.38 12.74-5.5 6.81-1.64 7.25-1.9 7.25-4.49 0.01-1.51-1.1-10.96-2.47-21-1.36-10.04-4.09-26.58-6.06-36.75-1.97-10.17-5.39-25.7-7.58-34.5-2.2-8.8-5.3-20.5-6.9-26-1.59-5.5-5.33-17.2-8.31-26-2.98-8.8-7.24-20.73-9.46-26.5-2.23-5.77-6.16-15.45-8.74-21.5-2.58-6.05-8.61-19.1-13.4-29-4.8-9.9-11.99-23.85-15.99-31-4-7.15-11.84-20.34-17.43-29.31-5.58-8.98-14.4-22.25-19.59-29.5-5.19-7.26-13.65-18.59-18.8-25.19-5.15-6.6-14.17-17.63-20.03-24.5-5.86-6.88-19-20.86-29.19-31.07-10.2-10.22-23.94-23.19-30.54-28.84-6.6-5.65-17.32-14.39-23.82-19.43-6.5-5.04-17.16-12.98-23.69-17.66-6.53-4.67-18.76-12.74-27.18-17.92-8.42-5.18-22.29-13.26-30.81-17.94-8.52-4.68-23.15-12.07-32.5-16.41-9.35-4.35-24.2-10.75-33-14.23-8.8-3.47-22.75-8.58-31-11.33-8.25-2.76-21.75-6.85-30-9.09-8.25-2.24-20.85-5.39-28-7.01-7.15-1.62-21.1-4.29-31-5.95-9.9-1.65-24.08-3.71-31.5-4.56-7.42-0.86-19.35-2.01-26.5-2.56-7.15-0.56-26.05-0.93-42-0.82-15.95 0.1-31.25 0.33-34 0.51zm3.67 221.56c-1.6 2.34-4.31 7.06-6.04 10.5-1.72 3.44-4.32 10.41-5.77 15.5-1.45 5.09-2.81 9.48-3.02 9.75-0.21 0.27-2.29-1.38-4.61-3.67-2.33-2.29-7.61-6.47-11.73-9.28-4.13-2.82-10.99-6.45-15.25-8.09-4.26-1.63-8.88-2.96-10.25-2.96-1.38 0-2.73 0.68-3 1.5-0.27 0.83-0.5 5.1-0.5 9.5 0 4.4 0.71 11.49 1.59 15.75 0.87 4.26 2.93 10.9 4.57 14.75 1.64 3.85 4.93 9.93 7.31 13.5 2.37 3.58 7.4 9.69 11.17 13.58 3.77 3.9 10.23 9.31 14.36 12.04 4.12 2.72 10.87 6.26 15 7.85 4.12 1.6 8.06 3.27 8.75 3.72 0.72 0.47 4.09-0.19 8-1.56 3.71-1.31 9.45-3.74 12.75-5.39 3.3-1.66 8.7-5.04 12-7.52 3.3-2.48 8.5-7.15 11.56-10.37 3.06-3.22 7.38-8.55 9.61-11.85 2.23-3.3 4.95-7.8 6.05-10 1.1-2.2 2.97-6.81 4.14-10.25 1.18-3.44 2.57-10.19 3.09-15 0.52-4.81 0.63-11.23 0.23-14.25-0.71-5.49-0.72-5.5-4.2-5.45-1.94 0.03-7.46 1.95-12.48 4.35-4.95 2.36-10.8 5.54-13 7.06-2.2 1.52-6.48 5.04-9.5 7.81l-5.5 5.05c-4.34-14.97-6.94-22.02-8.59-25.32-1.64-3.3-4.54-8.14-6.45-10.75-2.09-2.87-4.23-4.75-5.42-4.75-1.18 0-3.11 1.69-4.87 4.25zm0.79 9.93c-1.78 3.48-4.25 9.25-5.47 12.82-1.23 3.58-2.81 10.1-3.52 14.5-0.8 4.99-1.05 11.76-0.68 18 0.32 5.5 1.33 12.93 2.24 16.5 0.91 3.58 3.64 10.66 6.06 15.75 2.43 5.09 4.9 9.14 5.5 9 0.61-0.14 2.83-3.4 4.95-7.25 2.11-3.85 5.07-11.05 6.58-16 2.39-7.89 2.74-10.73 2.8-23 0.05-11.71-0.31-15.31-2.22-22-1.26-4.4-4.18-11.56-6.49-15.91-2.32-4.36-4.73-8.1-5.36-8.32-0.63-0.22-2.6 2.44-4.39 5.91zm-55.05 15.12c0.04 3.96 0.99 10.8 2.13 15.2 1.13 4.4 3.82 11.38 5.96 15.5 2.15 4.13 6.54 10.65 9.76 14.5 3.21 3.85 8.78 9.48 12.38 12.5 3.59 3.02 9.3 6.96 12.69 8.75 3.4 1.79 6.4 3.14 6.67 3 0.28-0.14-0.85-3.29-2.5-7-1.65-3.71-3.92-10.01-5.05-14-1.13-4.02-2.32-12.16-2.67-18.25l-0.64-11c-6.31-6.77-10.84-10.75-14.14-13.23-3.3-2.47-8.48-5.74-11.5-7.27-3.02-1.52-7.22-3.47-9.33-4.33l-3.82-1.57zm112.08-4.45c-2.47 0.96-7.65 3.78-11.5 6.26-3.85 2.48-9.92 7.24-13.5 10.57l-6.5 6.06c-1.09 17.97-2.22 24.81-3.91 30.51-1.42 4.81-3.94 11.45-5.59 14.75-1.65 3.3-2.77 6-2.5 6 0.28 0 2.87-1.17 5.75-2.6 2.89-1.43 7.05-3.85 9.25-5.38 2.2-1.52 6.25-4.78 9-7.23 2.75-2.46 7.32-7.57 10.16-11.38 2.84-3.8 6.84-10.28 8.9-14.41 2.21-4.44 4.49-11.17 5.58-16.5 1.01-4.95 1.84-11.14 1.85-13.75q0.01-4.75-1.24-4.7c-0.68 0.02-3.27 0.83-5.75 1.8zm-132.9 63.56c-1.88 0.73-4.46 2.74-5.75 4.46-1.29 1.72-2.63 4.82-2.98 6.88-0.34 2.06-0.43 6.23-0.19 9.25 0.24 3.06 1.63 8.05 3.13 11.25 1.48 3.16 4.83 7.91 7.44 10.56 2.62 2.64 6.78 6 9.25 7.47 2.48 1.46 8.33 3.63 13 4.82 6.78 1.72 10.03 2.03 16 1.51 4.13-0.35 8.74-0.86 10.25-1.13 2.65-0.46 2.99 0 8.66 11.77 3.24 6.74 8.17 18.33 10.95 25.75 2.78 7.43 5.35 14.85 5.7 16.5 0.45 2.06-0.62 7.54-3.41 17.5-2.24 7.98-5.02 18.33-6.19 23-1.76 7.05-1.94 9.23-1.04 12.75 0.67 2.61 2.24 5.22 4.08 6.75 1.65 1.38 4.69 2.93 6.75 3.46 2.07 0.53 5.33 0.62 7.25 0.19 1.93-0.42 4.63-1.55 6-2.5 1.38-0.96 3.29-2.96 4.25-4.45 0.96-1.48 1.74-4.39 1.75-6.45 0-2.06-1.1-8.14-2.44-13.5-1.35-5.36-4.05-15.04-6-21.5-1.96-6.46-3.56-12.42-3.56-13.25 0-0.82 2.3-7.69 5.12-15.25 2.81-7.56 7.52-19.15 10.48-25.75 2.95-6.6 5.94-12.79 6.64-13.76 1.15-1.61 1.98-1.66 9.26-0.61 6.07 0.87 9.94 0.87 16-0.02 4.72-0.68 10.57-2.38 14.25-4.14 3.44-1.63 8.62-5.17 11.5-7.85 2.89-2.69 6.6-7.53 8.25-10.75 2.69-5.26 3-6.82 3-15.05 0-7.79-0.31-9.6-2.12-12-1.16-1.55-3.19-3.63-4.5-4.63-1.31-1-4.4-2.07-6.88-2.39-3.58-0.46-5.71-0.03-10.5 2.14-4.37 1.99-8.31 5.06-14.57 11.39-5.27 5.33-11.77 13.49-16.87 21.17-4.56 6.88-8.69 12.61-9.18 12.75-0.48 0.14-2.56-0.6-4.63-1.63-2.06-1.04-5.71-3.85-8.1-6.25-2.4-2.4-5.1-5.61-6-7.12-0.91-1.52-2.21-2.98-2.9-3.25-0.68-0.28-1.97-0.16-2.86 0.25-0.89 0.41-2.43 2.1-3.41 3.75-0.98 1.65-3.85 4.91-6.38 7.25-2.53 2.34-6.4 5.15-8.6 6.25l-4 2c-7.17-12.01-11.79-18.87-14.88-23-3.09-4.12-8.77-10.56-12.62-14.3-3.85-3.74-9.25-7.91-12-9.26-2.9-1.43-6.67-2.44-9-2.41-2.2 0.03-5.53 0.65-7.4 1.38zm0.56 6.59c-1.61 1.21-3.08 3.68-3.72 6.25-0.76 3.01-0.76 5.64 0 9 0.58 2.61 1.92 6.44 2.96 8.5 1.05 2.06 3.63 5.52 5.75 7.67 2.12 2.16 5.65 5.05 7.85 6.43 2.2 1.38 6.59 3.33 9.75 4.33 3.34 1.06 8.79 1.83 13 1.83 3.99 0.01 8.73-0.33 10.53-0.75 1.8-0.42 3.27-0.98 3.27-1.26 0.01-0.27-3.09-5.22-6.88-11-3.79-5.77-10.43-14.29-14.77-18.92-4.34-4.63-9.92-9.7-12.4-11.26-3.07-1.95-5.79-2.84-8.59-2.83-2.53 0.01-5.12 0.78-6.75 2.01zm140.72 2.32c-3.23 2.38-8.13 6.81-10.88 9.84-2.75 3.03-7.52 9.08-10.62 13.43-3.09 4.35-6.69 9.79-8 12.09-1.3 2.3-2 4.55-1.54 5 0.46 0.45 4.96 0.99 10 1.2 6.59 0.27 10.85-0.11 15.16-1.33 3.3-0.94 8.03-2.98 10.5-4.54 2.48-1.55 6.19-4.67 8.25-6.92 2.07-2.25 4.7-6 5.86-8.34 1.16-2.34 2.35-6.27 2.64-8.75 0.29-2.47 0.01-6.19-0.61-8.25-0.63-2.06-2.37-4.66-3.89-5.78-1.74-1.3-4.25-2.03-6.87-2-3.25 0.02-5.35 0.94-10 4.35zm-67.88 33.1c-3.3 3.34-7.8 6.98-10 8.08-2.2 1.1-4.11 2-4.24 2-0.14 0 2.63 6.53 6.14 14.5 3.51 7.98 8.12 19.1 10.25 24.72 2.12 5.63 3.92 10.13 4 10 0.08-0.12 2.38-6.07 5.11-13.22 2.73-7.15 7.39-18.14 10.35-24.42 4.34-9.19 5.1-11.53 3.89-11.95-0.82-0.29-4.15-2.35-7.4-4.58-3.25-2.23-7.08-5.73-8.5-7.78-1.43-2.05-2.82-3.66-3.1-3.58-0.27 0.07-3.2 2.88-6.5 6.23zm2.34 92.83c-2.01 7.29-4.24 15.95-4.95 19.25-1.15 5.34-1.1 6.3 0.41 8.75 0.94 1.51 2.83 3.2 4.2 3.75 1.38 0.55 3.63 1 5 1 1.38 0 3.85-1.12 5.5-2.5 2.37-1.97 3-3.3 2.99-6.25 0-2.06-1.86-10.95-4.12-19.75-2.27-8.8-4.4-16.34-4.74-16.75-0.35-0.41-2.27 5.21-4.29 12.5zm-372.84 158.25v53.5h30v-107h-30zm200-43v10.5h27v-21h-27zm253 2v12.5l33.05 0.5-0.05 81.5h30c0.19-42.24 0.35-60.57 0.47-68l0.22-13.5 33.31-0.5v-25h-97zm293 41v53.5h27c0.05-42.29 0.24-44.92 2.03-48.75 1.56-3.36 2.86-4.58 6.22-5.86 2.78-1.05 5.64-1.39 8.25-0.99 2.2 0.34 5.02 1.29 6.25 2.11 1.24 0.82 2.93 3.07 3.75 4.99 1.19 2.77 1.5 8.22 1.5 26v22.5h27.5c-0.97-54.02-1.12-55.77-3.29-60.5-1.27-2.75-3.97-6.69-6-8.76-2.04-2.06-5.96-4.75-8.71-5.96-3.98-1.76-6.93-2.22-14.5-2.24-8.59-0.04-10.07 0.25-15.48 2.96-3.3 1.65-6.33 3.11-6.75 3.25-0.42 0.14-0.77-7.85-0.77-17.75v-18h-27zm-582.5-48.39c-3.85 0.47-8.46 1.08-10.25 1.37l-3.25 0.52-5.5 24.01-12.5-0.01v21l12.5 0.5c0.96 37.86 1.24 40.43 3.13 44 1.17 2.2 3.64 5.38 5.5 7.06 2.07 1.87 5.5 3.57 8.87 4.39 3.76 0.92 8.67 1.15 15.5 0.74 5.5-0.32 11.02-0.84 12.25-1.14 2.16-0.53 2.25-0.99 2.25-11.05 0-9.49-0.16-10.46-1.75-10.09-0.96 0.23-3.32 0.68-5.25 0.99-1.92 0.32-4.85 0.22-6.5-0.21-1.98-0.52-3.59-1.95-4.76-4.24-1.47-2.88-1.72-5.67-1.5-16.95l0.26-13.5 19.41-1-0.59-20-19.32-0.5c0-20.92-0.33-26.94-0.75-26.87-0.41 0.07-3.9 0.51-7.75 0.98zm-80.75 24.93c-2.06 0.53-5.88 2.05-8.5 3.38-2.61 1.33-5.65 3.09-6.75 3.9-1.87 1.38-2.11 1.22-3.75-2.42l-1.75-3.9-20.5 0.5-0.5 75.5h28c0-40.45 0.33-46.66 1.37-48.75 0.76-1.51 2.67-3.63 4.25-4.7 2-1.36 4.63-1.97 8.56-2 4.24-0.04 6.38 0.48 8.5 2.05 1.55 1.15 3.38 3.18 4.06 4.5 0.87 1.7 1.24 9.19 1.25 25.65l0.01 23.25h28c-0.53-51.57-0.71-53.9-2.75-59-1.27-3.19-3.98-7.26-6.47-9.7-2.35-2.31-6.53-5.18-9.28-6.38-3.26-1.43-7.6-2.3-12.5-2.51-4.12-0.19-9.18 0.1-11.25 0.63zm191.75 0.48c-2.2 0.79-5.91 2.79-8.25 4.46l-4.25 3.02-2.5-7.08-20 0.58-0.5 75.5h27l0.5-51.18c4.27-3.73 6.52-4.84 7.75-4.86 1.24-0.02 3.38 0.83 4.75 1.91l2.5 1.95 0.5 52.18h27c0-42.1 0.36-49.7 1.25-51.49 0.69-1.38 2.27-2.95 3.5-3.5 1.24-0.56 3.15-1.01 4.25-1.01 1.1 0 3.13 1.13 4.5 2.5l2.5 2.5v51h27c0.02-48.2-0.31-55.65-1.43-59.5-0.81-2.75-2.74-6.8-4.3-9-1.67-2.34-4.9-5.04-7.81-6.5-4.07-2.05-6.39-2.5-12.96-2.48-6.51 0.01-8.83 0.46-12.5 2.42-2.47 1.33-5.51 3.46-6.75 4.73l-2.25 2.33c-5.96-5.65-9.55-7.71-12.5-8.57-2.75-0.79-6.8-1.42-9-1.39-2.2 0.02-5.8 0.69-8 1.48zm119.5-0.93c-1.37 0.25-4.52 0.97-7 1.59-2.47 0.63-6.52 2.15-9 3.39-2.47 1.24-5.94 3.76-7.69 5.59-1.76 1.84-3.9 5.03-4.75 7.09-0.86 2.06-1.56 4.88-1.56 6.25v2.5c26.44 0.06 26.51 0.05 27.75-2.47 0.69-1.39 2.94-3.25 5-4.14 2.65-1.13 5.91-1.5 11.09-1.25 6.52 0.32 7.6 0.67 9.75 3.11 1.33 1.51 2.41 3.88 2.41 5.25 0 2.06-0.57 2.58-3.25 2.95-1.78 0.25-7.75 0.97-13.25 1.59-5.5 0.62-13.03 1.77-16.75 2.55-3.71 0.77-8.66 2.31-11 3.4-2.33 1.1-5.57 3.24-7.18 4.75-1.61 1.52-3.74 4.56-4.73 6.76-0.98 2.2-1.79 6.25-1.79 9 0 2.75 0.81 6.8 1.81 9 0.99 2.2 3.23 5.24 4.97 6.75 1.75 1.51 5.54 3.43 8.42 4.26 2.92 0.84 9.25 1.52 14.25 1.52 6.06 0.01 11.13-0.62 15.5-1.93 3.58-1.07 8.53-3.49 11-5.38l4.5-3.42 3.19 8.2 22.31 0.5c0-39.52-0.44-53.14-0.98-55.75-0.55-2.61-2.35-6.66-4-9-1.66-2.34-4.48-5.16-6.27-6.27-1.78-1.1-6.17-2.94-9.75-4.08-4.64-1.47-9.93-2.16-18.5-2.41-6.6-0.19-13.12-0.15-14.5 0.1zm190.5 0.98c-3.3 0.84-8.67 2.97-11.93 4.73-3.41 1.84-7.47 5.11-9.54 7.7-1.99 2.48-4.66 7.2-5.94 10.5-1.86 4.8-2.34 8-2.38 16-0.04 7.9 0.39 11.16 2.07 15.5 1.17 3.03 3.53 7.3 5.25 9.5 1.72 2.2 5.23 5.41 7.8 7.14 2.57 1.72 6.92 3.93 9.67 4.91 3.06 1.09 9.08 1.95 15.5 2.23 5.88 0.26 12.82-0.03 15.75-0.66 2.89-0.62 7.78-2.36 10.87-3.87 3.09-1.51 7.59-4.89 10-7.5 2.41-2.61 5.28-6.77 6.38-9.25 1.1-2.47 2-4.72 2-5 0-0.27-6.31-0.5-14.03-0.5h-14.03c-5.27 5.44-7.88 6.91-10.44 7.39-2.24 0.43-5.75 0.31-8-0.27-2.2-0.56-4.95-2.06-6.12-3.32-1.17-1.27-2.63-3.31-3.25-4.55-0.62-1.24-1.13-2.92-1.13-3.75 0-1.3 3.92-1.5 29.25-1.49h29.25c-1.02-15.54-1.83-18.97-4.15-24.01-1.64-3.57-4.53-8.24-6.42-10.38-1.88-2.13-5.23-4.92-7.43-6.21-2.2-1.28-6.25-3.05-9-3.92-2.75-0.87-9.27-1.78-14.5-2.02-6.56-0.3-11.35 0.04-15.5 1.1zm95.25-0.05c-3.16 0.82-7.88 2.48-10.5 3.7-2.61 1.22-6.79 4.26-9.29 6.75-2.5 2.49-5.52 6.56-6.73 9.03-1.2 2.48-2.69 7.2-3.32 10.5-0.63 3.36-0.86 9.19-0.52 13.25 0.34 3.99 1.49 9.61 2.56 12.5 1.08 2.89 3.71 7.28 5.86 9.75 2.15 2.48 6.11 5.71 8.8 7.19 2.69 1.48 7.59 3.39 10.89 4.25 3.47 0.91 10.02 1.56 15.5 1.55 5.38-0.02 12.11-0.71 15.5-1.6 3.3-0.87 7.8-2.64 10-3.94 2.2-1.29 5.9-4.29 8.21-6.65 2.31-2.36 5.07-6.32 6.13-8.8 1.06-2.47 2.2-5.74 2.54-7.25l0.62-2.75-27.5 0.07c-5.83 7.12-7.46 8.11-11.25 8.82-2.73 0.51-6.23 0.51-8.25 0-1.92-0.48-4.51-1.55-5.75-2.38-1.23-0.83-3.15-3.31-4.25-5.51-1.27-2.54-2-6-2-9.5 0-3.02 0.62-6.96 1.38-8.75 0.75-1.79 2.44-4.2 3.75-5.36 1.3-1.16 3.95-2.63 5.87-3.27 1.93-0.63 4.63-1.13 6-1.11 1.38 0.02 4.42 0.93 6.75 2.01 2.34 1.09 4.82 3.12 5.5 4.51l1.25 2.53 28.5-0.06c-1.58-5.81-3.49-9.96-5.27-12.96-1.8-3.06-5.43-7.15-8.23-9.27-2.75-2.09-7.92-4.74-11.5-5.89-4.08-1.31-10.03-2.23-16-2.46-6.26-0.25-11.45 0.13-15.25 1.1zm-479.83 0.9c-0.23 0.23-0.3 17.33-0.17 38l0.25 37.58h27v-76c-20.66 0-26.85 0.19-27.08 0.42zm389.58 19.57c-1.65 1.08-3.79 3.44-4.76 5.24l-1.76 3.27c21.69 0.43 28.33 0.29 28.75-0.03 0.43-0.32 0.08-1.8-0.77-3.28-0.85-1.48-3.1-3.71-5-4.97-2.47-1.62-4.89-2.27-8.46-2.24-3.25 0.02-6.04 0.72-8 2.01zm-185 24.45c-4.4 0.69-9.46 1.99-11.25 2.9-1.78 0.92-3.52 2.67-3.85 3.91-0.33 1.24-0.1 3.26 0.5 4.5 0.63 1.28 2.72 2.74 4.85 3.39 2.18 0.65 6.07 0.87 9.25 0.5 3.03-0.35 6.81-1.42 8.4-2.39 1.59-0.96 3.74-2.87 4.77-4.25 1.03-1.37 2.2-4.19 2.6-6.27l0.73-3.77c-6.2 0.19-11.6 0.8-16 1.48zm-397.56 92.83c-1.89 1.25-4.25 3.84-5.25 5.75-1.29 2.48-1.68 4.92-1.37 8.48 0.24 2.75 1.05 6.04 1.81 7.31 0.76 1.27 2.95 3.27 4.87 4.46 2.57 1.58 5.1 2.14 9.5 2.13 4.14-0.01 7.02-0.61 9.27-1.95 1.79-1.07 3.91-3.3 4.7-4.95l1.45-3c-6.82-0.43-8.47 0.06-9.92 1.5-1.15 1.15-3.38 2.02-5.25 2.04-1.78 0.03-4.37-0.83-5.75-1.91-2.09-1.63-2.5-2.79-2.5-7.13 0-4.33 0.41-5.49 2.5-7.13 1.38-1.07 3.97-1.93 5.75-1.91 2.1 0.03 4.14 0.93 5.75 2.54 2.12 2.12 3.04 2.39 5.98 1.75 3.29-0.71 3.41-0.88 2.25-3.2-0.67-1.36-2.8-3.51-4.73-4.78-2.71-1.8-4.85-2.32-9.56-2.3-4.61 0.02-6.9 0.58-9.5 2.3zm38.06 0.23c0 2.19 0.44 2.5 3.5 2.5 3.07 0 3.5-0.31 3.5-2.5 0-2.19-0.43-2.5-3.5-2.5-3.06 0-3.5 0.31-3.5 2.5zm27.17 0.5l-2.17 3c3.88 0 5.45-0.79 6-1.75 0.96-1.67 1.05-1.67 2 0 0.55 0.96 1.9 1.75 3 1.75 1.89 0 1.92-0.17 0.5-3-1.13-2.27-2.18-3-4.33-3-2 0-3.47 0.88-5 3zm102.83-0.5c0 2.19 0.44 2.5 3.5 2.5 3.07 0 3.5-0.31 3.5-2.5 0-2.19-0.43-2.5-3.5-2.5-3.06 0-3.5 0.31-3.5 2.5zm129.4-1.28c-0.33 0.71-0.34 2.07 0 3.03 0.43 1.24 1.85 1.82 4.85 2l4.25 0.25 0.5 23.5h8l0.5-23.5c9.28-0.49 9.49-0.63 9.25-3.25l-0.25-2.75c-23.24-0.49-26.64-0.24-27.1 0.72zm182.6 13.78v15h7v-30h-7zm91-12.5c0 2.19 0.44 2.5 3.5 2.5 3.07 0 3.5-0.31 3.5-2.5 0-2.19-0.43-2.5-3.5-2.5-3.06 0-3.5 0.31-3.5 2.5zm77.06 0.5l-2.06 3c3.49 0.04 5.51-0.97 6.73-2.22 1.23-1.25 2.24-2.62 2.25-3.03 0.01-0.41-1.07-0.75-2.42-0.75-1.59 0-3.16 1.05-4.5 3zm80.49-2.38c-0.48 0.39-0.8 1.54-0.71 2.55 0.13 1.44 1.01 1.83 4.16 1.83 3.56 0 3.98-0.25 3.75-2.25-0.19-1.7-0.98-2.32-3.28-2.55-1.68-0.16-3.44 0.03-3.92 0.42zm-23.32 4.56c-0.42 1.86-1.45 3.31-2.48 3.5-1.11 0.2-1.75 1.23-1.75 2.82 0 1.51 0.63 2.6 1.59 2.75 1.23 0.19 1.62 1.65 1.75 6.47 0.12 4.49 0.66 6.71 1.96 8 1.16 1.14 3.31 1.78 6 1.78 3.86 0 4.22-0.22 4.45-2.75 0.2-2.2-0.2-2.8-2-3-1.97-0.22-2.28-0.88-2.5-5.5-0.22-4.67-0.02-5.25 1.75-5.25 1.47 0 2-0.67 2-2.5 0-1.85-0.58-2.56-2.25-2.75-1.82-0.2-2.25-0.87-2.25-3.5 0-2.88-0.31-3.25-2.77-3.25-2.29 0-2.89 0.55-3.5 3.18zm-639.23 3.88c-1.92 0.48-4.32 1.67-5.32 2.65-1.07 1.05-2.04 3.85-2.35 6.79-0.42 4.06-0.13 5.52 1.58 7.75 1.25 1.64 3.71 3.16 6.09 3.75 2.69 0.67 5.24 0.67 7.75-0.02 2.07-0.56 4.56-1.8 5.54-2.75 0.98-0.95 1.76-2.07 1.75-2.48-0.02-0.41-1.84-0.75-4.04-0.75-2.2 0-4.22 0.45-4.5 1-0.27 0.55-1.4 1-2.5 1-1.1 0-2.67-0.67-3.5-1.5-0.82-0.82-1.5-1.95-1.5-2.5 0-0.59 3.5-1 8.5-1 8.15 0 8.5-0.09 8.5-2.25 0-1.24-0.9-3.71-2-5.5-1.36-2.21-3.19-3.57-5.75-4.24-2.06-0.55-3.97-0.95-4.25-0.9-0.27 0.05-2.07 0.48-4 0.95zm72.93 0.06c-1.88 0.41-4.44 1.9-5.68 3.31-1.64 1.88-2.25 3.84-2.27 7.32-0.01 3.38 0.57 5.4 2 7 1.12 1.24 3.71 2.74 5.77 3.35 2.72 0.79 4.93 0.79 8 0 2.59-0.67 5.07-2.17 6.35-3.85l2.1-2.75c-5.96-0.44-8.12-0.1-8.65 0.47-0.52 0.57-2.09 1.05-3.5 1.08-1.4 0.02-3.12-0.54-3.82-1.25-0.69-0.72-1.14-2.83-1-4.7 0.15-1.87 1.03-3.89 1.96-4.5 1.25-0.81 2.68-0.75 5.5 0.24 2.1 0.73 5.13 1.18 6.74 1l2.93-0.34c-4-4.66-6.3-5.92-8.93-6.39-2.23-0.39-5.61-0.39-7.5 0.01zm55.18 0.19c-1.86 0.65-4 2.2-4.75 3.44-1.28 2.13-1.18 2.28 1.89 2.81 2.21 0.38 3.74 0.07 4.75-0.97 0.83-0.85 2.4-1.57 3.5-1.61 1.1-0.04 2.57 0.63 3.25 1.48 1.04 1.27 0.91 1.71-0.75 2.54-1.1 0.55-3.12 1-4.5 1-1.37 0-3.62 0.45-5 1-1.37 0.55-3.17 2.13-4 3.5-1.33 2.22-1.33 2.78 0 5 0.92 1.53 2.77 2.73 4.75 3.09 1.99 0.36 4.72-0.03 7-1 2.34-0.99 3.94-1.21 4.25-0.59 0.28 0.55 1.85 1 3.5 1h3c0.02-13-0.47-16.22-1.49-17.75-0.83-1.24-3.19-2.7-5.26-3.24-2.06-0.55-4.42-0.97-5.25-0.95-0.82 0.03-3.02 0.59-4.89 1.25zm56.78-0.19c-1.86 0.41-4.4 1.9-5.64 3.31-1.55 1.78-2.26 3.88-2.28 6.82-0.02 2.75 0.68 5.22 2 7 1.12 1.51 3.5 3.22 5.28 3.8 1.88 0.6 4.94 0.72 7.25 0.28 2.2-0.42 5.02-1.56 6.25-2.54 1.24-0.99 2.25-2.24 2.25-2.79 0-0.55-1.57-1-3.5-1-1.92 0-4.37 0.56-5.43 1.25-1.55 1-2.45 1-4.5 0-1.41-0.69-2.57-1.92-2.57-2.75 0-1.21 1.56-1.5 8-1.5h8c0-4.65-0.33-6.74-0.75-7.64-0.41-0.9-1.65-2.1-2.75-2.66-1.1-0.57-3.4-1.32-5.11-1.68-1.71-0.35-4.63-0.31-6.5 0.1zm92.51 0.01c-1.71 0.52-4.1 2.39-5.31 4.16-1.71 2.51-2.09 4.19-1.72 7.71 0.33 3.22 1.2 5.14 3.05 6.75 1.42 1.24 4.05 2.53 5.83 2.87 1.8 0.34 5.23 0 7.65-0.75 2.42-0.75 5.12-2.4 6-3.66 1.58-2.27 1.56-2.3-1.9-2.24-1.92 0.03-4.93 0.61-6.69 1.29-2.83 1.1-3.43 1.01-5.23-0.76-1.12-1.1-1.82-2.34-1.56-2.75 0.27-0.41 4.08-0.75 8.48-0.75h8c0.06-4.26-0.84-6.74-1.96-8.25-1.15-1.56-3.66-3.18-5.79-3.74-2.06-0.55-4.2-0.96-4.75-0.91-0.55 0.04-2.39 0.51-4.1 1.03zm35.81-0.03c-1.81 0.51-4.19 2.16-5.28 3.66-1.27 1.75-1.98 4.28-1.96 6.99 0.02 3.03 0.75 5.11 2.53 7.25 1.81 2.16 3.69 3.17 6.75 3.6 2.89 0.4 5.54 0.05 8.25-1.09 2.2-0.92 4.55-2.42 5.22-3.34 0.67-0.92 1.24-2.01 1.25-2.42 0.02-0.41-1.68-0.75-3.77-0.75-2.09 0-4.22 0.47-4.75 1.04-0.52 0.58-2.29 0.92-3.93 0.75-2.18-0.21-3.25-1.01-4-2.98-0.73-1.95-0.67-3.41 0.23-5.25 0.88-1.8 2.07-2.57 4-2.6 1.52-0.03 3.43 0.67 4.25 1.54 0.83 0.88 2.97 1.57 4.75 1.55 1.79-0.03 3.27-0.39 3.29-0.8 0.02-0.41-0.88-1.99-2-3.5-1.15-1.56-3.66-3.18-5.79-3.74-2.06-0.55-4.2-0.96-4.75-0.91-0.55 0.04-2.48 0.5-4.29 1zm39.29 0.43c-1.89 1-3.09 1.2-3.25 0.53-0.13-0.58-1.82-1.06-3.75-1.06h-3.5v21h7c-0.02-9.7 0.54-13.32 1.24-14.32 0.86-1.24 2.23-1.72 4.26-1.5l3 0.32 0.5 15.5 8.5 0.01c-0.89-15.16-1.41-17.36-3-18.95-1.1-1.1-3.35-2.26-5-2.57-1.82-0.34-4.17 0.07-6 1.04zm33.39-0.41c-1.86 0.41-4.4 1.9-5.64 3.31-1.55 1.78-2.26 3.88-2.28 6.82-0.02 2.75 0.68 5.22 2 7 1.16 1.57 3.65 3.18 5.78 3.74 2.17 0.57 5.03 0.63 6.75 0.15 1.65-0.46 4.02-1.35 5.25-1.98 1.44-0.74 2.63-2.7 3.31-5.41 0.73-2.97 0.73-5.23 0-7.5-0.58-1.79-2.07-3.77-3.31-4.41-1.23-0.64-3.65-1.46-5.36-1.82-1.71-0.35-4.63-0.31-6.5 0.1zm55.32-0.02c-1.81 0.51-4.19 2.16-5.28 3.66-1.29 1.77-2 4.33-2 7.24 0 3.39 0.59 5.12 2.39 7 1.32 1.38 4.13 2.81 6.24 3.18 2.12 0.38 5.34 0.26 7.15-0.25 1.81-0.51 4.21-2.17 5.33-3.68 1.25-1.69 2.03-4.29 2.03-6.75 0-2.45-0.78-5.06-2.03-6.75-1.15-1.56-3.66-3.18-5.79-3.74-2.06-0.55-3.97-0.96-4.25-0.91-0.27 0.04-1.98 0.5-3.79 1zm33.29 0.28c-1.65 0.71-3.56 2.5-4.25 3.96-0.68 1.46-1.25 4.46-1.25 6.66 0 3.11 0.67 4.67 3 7q3 3 6 3c1.65 0 3.9-0.45 5-1 1.78-0.89 1.98-0.69 1.75 1.75-0.2 2.26-0.78 2.8-3.25 3.04-1.65 0.17-3.45-0.18-4-0.76-0.55-0.59-2.46-1.05-4.25-1.05-2.21 0.02-3.25 0.5-3.25 1.52 0 0.83 1.24 2.44 2.75 3.6 2.27 1.72 3.86 2.03 8.97 1.75 4.58-0.26 6.73-0.87 8.17-2.35 1.6-1.64 1.99-3.61 2.16-11 0.11-4.95 0.15-10.69 0.08-12.75-0.12-3.47-0.35-3.75-3.13-3.75-1.65 0-3.11 0.48-3.25 1.06-0.15 0.68-1.34 0.5-3.25-0.49-1.65-0.86-3.45-1.54-4-1.52-0.55 0.01-2.35 0.61-4 1.33zm56.61-0.3c-1.86 0.49-4.11 1.8-5 2.91-0.88 1.11-1.38 2.18-1.11 2.37 0.28 0.2 1.97 0.64 3.75 1 2.33 0.46 3.61 0.2 4.5-0.9 0.69-0.85 2.15-1.54 3.25-1.52 1.1 0.02 2.57 0.6 3.27 1.29 0.7 0.7 1.26 1.61 1.25 2.02-0.01 0.41-1.7 0.99-3.77 1.29-2.06 0.3-5.43 0.97-7.5 1.5-2.73 0.7-4.02 1.71-4.76 3.71-0.78 2.11-0.67 3.28 0.5 5 0.83 1.24 2.98 2.52 4.76 2.84 1.99 0.36 4.72-0.03 7-1 2.34-0.99 3.94-1.21 4.25-0.59 0.28 0.55 1.85 1 3.5 1h3c0.08-13.72-0.32-16.03-1.7-17.8-0.99-1.26-3.6-2.71-5.8-3.22-2.2-0.51-4.45-0.9-5-0.86-0.55 0.03-2.52 0.46-4.39 0.96zm78.53 0.37c-1.58 0.79-2.81 1.01-2.75 0.49 0.06-0.52-1.46-0.94-3.39-0.94h-3.5v21h7c-0.02-10.72 0.47-14.01 1.19-14.75 0.67-0.69 2.14-1.26 3.26-1.27 1.13 0 2.62 0.56 3.32 1.25 0.78 0.78 1.26 3.89 1.25 8.02l-0.02 6.75h7c0-11.62-0.56-16.13-1.25-17.52-0.68-1.39-2.6-2.97-4.25-3.52-1.65-0.54-3.45-0.98-4-0.97-0.55 0.01-2.29 0.67-3.86 1.46zm82.61 0.04c-1.37 0.92-2.44 1.12-2.75 0.51-0.27-0.55-1.85-1-3.5-1h-3v21h7c0.48-14.6 0.73-15.52 2.5-15.81 1.1-0.18 2.33 0.26 2.74 0.99 0.4 0.73 0.74 4.36 0.75 8.07l0.01 6.75h7c-0.02-11.81 0.44-14.95 1.24-15.73 1-0.96 1.54-0.96 2.56 0 0.84 0.8 1.28 3.79 1.25 8.48l-0.05 7.25h7c0.06-15.89-0.26-17.8-1.71-19.13-0.98-0.9-2.82-1.9-4.09-2.24-1.31-0.34-3.36 0.04-4.75 0.88-2.17 1.32-2.76 1.32-5.2 0-1.51-0.82-3.2-1.5-3.75-1.51-0.55-0.01-2.01 0.66-3.25 1.49zm42.75-0.43c-1.92 0.49-4.3 1.69-5.28 2.67-0.98 0.97-1.77 2.11-1.75 2.52 0.02 0.41 1.5 0.93 3.28 1.14 1.79 0.21 4.14-0.24 5.23-1 1.09-0.76 2.66-1.41 3.5-1.43 0.84-0.03 2.09 0.65 2.77 1.5 1.04 1.27 0.91 1.71-0.75 2.54-1.1 0.55-3.35 1-5 1-1.65 0-4.35 0.68-6 1.5-1.65 0.83-3.22 2.4-3.5 3.5-0.27 1.1 0.18 3.13 1 4.5 0.92 1.53 2.77 2.73 4.75 3.09 1.99 0.36 4.72-0.03 7-1 2.11-0.89 3.75-1.15 3.75-0.59 0 0.55 1.58 1 3.5 1h3.5c0-15.2-0.25-16.25-2.5-18.5-1.37-1.37-3.28-2.51-4.25-2.51-0.96-0.01-2.65-0.2-3.75-0.42-1.1-0.23-3.57 0-5.5 0.49zm-763 10.44v10.5h7v-21h-7zm57 0v10.5h7c0-10.07 0.23-13.67 0.5-14.5 0.29-0.84 1.71-1.51 3.25-1.52 1.52 0 3.32 0.56 4.02 1.25 0.78 0.78 1.26 3.89 1.25 8.02l-0.02 6.75h7c0-16.05-0.25-17.22-2.25-19.02-1.57-1.41-3.62-2.01-6.8-2-2.5 0.01-5.09 0.58-5.76 1.27-0.98 1-1.22 1-1.2 0 0.01-0.76-1.34-1.25-3.49-1.25h-3.5zm73 0v10.5h7v-21h-7zm403 0v10.5h7v-21h-7zm75 0v10.5h7v-21h-7zm82.7-9.75c-0.22 0.41-0.5 3.45-0.62 6.75-0.13 3.3 0.03 7.69 0.35 9.75 0.54 3.51 0.8 3.75 4.07 3.75h3.5v-21c-5.34 0-7.08 0.34-7.3 0.75zm-276.96 6.81c-0.89 1.84-0.95 3.31-0.22 5.25 0.68 1.77 1.87 2.79 3.5 2.97 1.37 0.16 3.07-0.29 3.78-1 0.71-0.7 1.28-2.63 1.27-4.28-0.02-1.65-0.6-3.57-1.3-4.27-0.7-0.69-2.29-1.25-3.53-1.25-1.44 0.01-2.72 0.96-3.5 2.58zm56.26-1.36c-0.77 0.66-1.31 2.57-1.21 4.25 0.1 1.68 0.75 3.62 1.45 4.32 0.69 0.69 2.19 1.26 3.31 1.25 1.13-0.01 2.6-0.58 3.27-1.27 0.67-0.69 1.22-2.6 1.22-4.25 0-1.65-0.57-3.57-1.27-4.27-0.7-0.69-2.19-1.25-3.32-1.25-1.12 0.01-2.68 0.56-3.45 1.22zm35.1 1.8c-0.87 2.37-0.78 3.53 0.4 5.5 0.83 1.38 2.31 2.5 3.3 2.5 0.99 0 2.35-0.56 3.02-1.25 0.67-0.69 1.22-2.6 1.22-4.25 0-1.65-0.57-3.57-1.27-4.27-0.7-0.69-2.23-1.25-3.42-1.25-1.47 0.02-2.5 0.97-3.25 3.02zm-346.52 5.25c-1.03 0.69-1.58 1.81-1.23 2.5 0.36 0.69 1.67 1.27 2.9 1.28 1.24 0.02 3.03-0.77 3.98-1.75 0.95-0.98 1.74-2.12 1.75-2.53 0.01-0.41-1.22-0.75-2.75-0.75-1.53 0-3.62 0.56-4.65 1.25zm403-0.17c-1.05 0.56-1.84 1.67-1.75 2.47 0.11 0.87 1.28 1.46 2.92 1.48 1.52 0.02 3.53-0.77 4.48-1.75 0.95-0.98 1.74-2.12 1.75-2.53 0.01-0.41-1.21-0.74-2.73-0.72-1.51 0.02-3.61 0.49-4.67 1.05zm203.17-0.46c-1 0.22-1.63 1.13-1.48 2.13 0.15 0.96 1.16 1.89 2.25 2.05 1.09 0.17 3-0.4 4.23-1.25 1.24-0.85 2.25-2 2.25-2.55 0-0.55-1.23-0.95-2.75-0.88-1.51 0.06-3.53 0.29-4.5 0.5z"/>
	<path id="Preencher com Cor Sólida 1" class="s1" d="m598 132.08c-9.08 0.43-23.92 1.73-33 2.9-9.08 1.17-22.58 3.25-30 4.63-7.42 1.37-19.13 3.87-26 5.54-6.88 1.68-19.7 5.22-28.5 7.88-8.8 2.66-21.4 6.84-28 9.3-6.6 2.46-17.4 6.82-24 9.69-6.6 2.88-17.18 7.82-23.5 10.98-6.32 3.17-17.57 9.24-25 13.5-7.43 4.25-18.68 11.15-25 15.32-6.32 4.16-17.13 11.82-24 17.02-6.88 5.19-18.35 14.5-25.5 20.68-7.15 6.18-20.2 18.61-29.01 27.61-8.8 9-20.54 21.77-26.08 28.37-5.54 6.6-13.66 16.73-18.05 22.5-4.38 5.77-11.3 15.45-15.37 21.5-4.06 6.05-11.16 17.3-15.77 25-4.61 7.7-13.03 23.45-18.72 35-5.69 11.55-13.04 27.75-16.34 36-3.3 8.25-8.09 21.07-10.64 28.5-2.55 7.42-6.37 19.57-8.48 27-2.11 7.42-5.43 20.7-7.37 29.5-1.95 8.8-4.48 22.75-5.63 31-1.14 8.25-2.3 16.91-2.56 19.25-0.46 4.04-0.79 4.41-6.64 7.5-3.38 1.79-7.91 5.27-10.05 7.75-2.15 2.48-4.77 6.3-5.83 8.5-1.05 2.2-2.42 6.7-3.04 10-0.61 3.3-0.88 7.8-0.59 10 0.3 2.2 1.44 6.48 2.53 9.5 1.18 3.25 4.01 7.75 6.91 11 3.49 3.91 6.77 6.34 11.32 8.38 3.53 1.59 8.66 3.22 11.41 3.63 3.09 0.46 7.29 0.26 11-0.51 3.3-0.69 8.03-2.28 10.5-3.54 2.47-1.27 6.54-4.36 9.03-6.88 2.49-2.52 5.53-6.72 6.75-9.33 1.22-2.61 2.72-7.11 3.34-10 0.62-2.91 0.83-7.7 0.47-10.75-0.36-3.02-1.92-8.2-3.48-11.5-1.55-3.3-4.8-7.92-7.22-10.26-2.41-2.34-5.86-5.04-7.65-6-2.2-1.17-3.25-2.47-3.25-3.99 0.01-1.24 1.16-10.01 2.56-19.5 1.4-9.49 4.09-24.23 5.97-32.75 1.89-8.52 5.29-22.25 7.56-30.5 2.26-8.25 6.6-21.98 9.63-30.5 3.04-8.52 8.17-21.69 11.41-29.25 3.23-7.56 8.64-19.26 12.01-26 3.36-6.74 9.05-17.43 12.63-23.75 3.57-6.33 10.77-18.02 15.99-26 5.21-7.98 13.88-20.35 19.25-27.5 5.37-7.15 13.46-17.27 17.97-22.5 4.5-5.23 14.34-15.77 21.86-23.43 7.52-7.66 19.3-18.86 26.17-24.88 6.87-6.02 18.35-15.33 25.5-20.67 7.15-5.34 16.38-11.97 20.5-14.73 4.12-2.76 11.55-7.48 16.5-10.48 4.95-3 13.95-8.19 20-11.53 6.05-3.34 17.3-8.99 25-12.55 7.7-3.57 20.3-8.97 28-12.01 7.7-3.03 19.63-7.35 26.5-9.59 6.87-2.23 17.45-5.39 23.5-7.01 6.05-1.62 17.3-4.3 25-5.97 7.7-1.66 20.08-3.92 27.5-5.01 7.42-1.09 19.13-2.58 26-3.3 7.53-0.8 24.43-1.31 42.5-1.3 17.14 0.02 34.93 0.57 41.5 1.29 6.33 0.69 16.45 1.94 22.5 2.79 6.05 0.84 16.85 2.65 24 4.02 7.15 1.37 18.17 3.79 24.5 5.38 6.33 1.58 17.58 4.74 25 7.01 7.42 2.27 22.05 7.52 32.5 11.66 10.45 4.15 26.54 11.31 35.75 15.93 9.21 4.61 21.81 11.38 28 15.05 6.19 3.66 15.98 9.8 21.75 13.63 5.77 3.83 14.77 10.16 20 14.07 5.23 3.91 14.9 11.61 21.5 17.11 6.6 5.5 18.47 16.3 26.37 24.01 7.9 7.71 18.52 18.74 23.59 24.51 5.07 5.77 13.63 16.12 19.02 23 5.38 6.87 14.42 19.48 20.07 28 5.65 8.52 13.76 21.57 18.03 29 4.26 7.42 10.87 20.02 14.7 28 3.82 7.98 9.86 21.48 13.41 30 3.54 8.52 8.91 22.92 11.92 32 3.01 9.07 7.45 24.15 9.86 33.5 2.41 9.35 5.76 24.42 7.43 33.5 1.67 9.08 3.7 21.67 4.52 28 0.82 6.33 2.02 17.8 2.66 25.5 0.75 8.96 0.97 25.16 0.62 45-0.33 18.85-1.17 36.09-2.14 44-0.88 7.15-2.73 19.98-4.11 28.5-1.38 8.52-4.48 23.6-6.88 33.5-2.41 9.9-6.01 23.4-8 30-1.99 6.6-5.22 16.5-7.17 22-1.95 5.5-5.93 15.85-8.84 23-2.92 7.15-8.14 19.08-11.62 26.5-3.47 7.42-9.22 18.9-12.77 25.5-3.54 6.6-9.94 17.62-14.22 24.5-4.27 6.87-11.23 17.45-15.48 23.5-4.24 6.05-12.77 17.3-18.95 25-6.18 7.7-17.07 20.3-24.21 28-7.14 7.7-18.35 18.8-24.9 24.67-6.55 5.86-15.29 13.48-19.41 16.93-4.13 3.45-12.45 9.95-18.5 14.45-6.05 4.51-16.85 12-24 16.66-7.15 4.66-18.4 11.52-25 15.24-6.6 3.73-18.75 10.06-27 14.07-8.25 4.01-20.63 9.54-27.5 12.27-6.88 2.74-19.7 7.32-28.5 10.17-8.8 2.85-23.42 6.99-32.5 9.2-9.08 2.21-24.15 5.3-33.5 6.87-9.35 1.57-24.42 3.55-33.5 4.41-9.71 0.92-26.37 1.56-40.5 1.56-13.2-0.01-31.65-0.69-41-1.52-9.35-0.83-21.73-2.2-27.5-3.06-5.77-0.85-16.35-2.67-23.5-4.05-7.15-1.38-17.5-3.63-23-5-5.5-1.38-14.95-4-21-5.82-6.05-1.83-14.82-4.67-19.5-6.31-4.68-1.65-14.35-5.36-21.5-8.24-7.15-2.88-21.55-9.42-32-14.54-10.45-5.12-26.2-13.64-35-18.95-8.8-5.3-21.18-13.3-27.5-17.77-6.32-4.48-16.43-11.98-22.45-16.69-6.02-4.7-17.05-14.01-24.5-20.69-7.45-6.67-16.97-15.67-21.15-20-4.19-4.32-11.8-12.59-16.92-18.36-5.12-5.77-14.01-16.58-19.77-24-5.76-7.42-14.18-18.9-18.71-25.5-4.54-6.6-12.16-18.52-16.95-26.5-4.78-7.98-12.88-22.83-18-33-5.11-10.17-11.33-23.23-13.83-29-2.49-5.77-6.86-16.58-9.7-24-2.83-7.42-7.08-20.02-9.43-28-2.36-7.98-4.53-14.05-4.84-13.5-0.3 0.55 1.34 7.3 3.64 15 2.3 7.7 5.92 18.73 8.04 24.5 2.12 5.77 6.67 17.25 10.1 25.5 3.43 8.25 10.25 23.1 15.16 33 4.91 9.9 12.91 24.75 17.77 33 4.86 8.25 12.81 20.85 17.66 28 4.86 7.15 12.55 17.79 17.1 23.65 4.56 5.85 13.46 16.6 19.78 23.88 6.32 7.28 18.05 19.59 26.05 27.35 8 7.77 19.7 18.45 26 23.74 6.3 5.29 16.4 13.33 22.45 17.87 6.05 4.54 15.95 11.52 22 15.51 6.05 4 15.27 9.86 20.5 13.03 5.23 3.17 17.15 9.71 26.5 14.54 9.35 4.83 23.3 11.47 31 14.75 7.7 3.28 22.55 8.88 33 12.44 10.45 3.57 25.3 8.1 33 10.09 7.7 1.98 19.4 4.7 26 6.05 6.6 1.35 18.52 3.35 26.5 4.46 7.98 1.1 20.58 2.57 28 3.27 7.42 0.7 26.77 1.26 43 1.25 21.28-0.02 33.82-0.51 45-1.76 8.52-0.96 22.25-2.88 30.5-4.28 8.25-1.39 22.87-4.48 32.5-6.86 9.62-2.37 22.67-5.98 29-8.01 6.33-2.03 17.8-6.08 25.5-9 7.7-2.93 18.73-7.4 24.5-9.94 5.77-2.54 16.35-7.69 23.5-11.45 7.15-3.76 17.05-9.21 22-12.12 4.95-2.91 14.4-8.9 21-13.3 6.6-4.4 16.95-11.7 23-16.22 6.05-4.53 15.76-12.22 21.58-17.09 5.82-4.87 15.63-13.58 21.79-19.35 6.16-5.77 16.48-16.28 22.92-23.35 6.44-7.07 16.82-19.22 23.06-27 6.25-7.78 16.9-22.48 23.67-32.65 6.78-10.17 16.04-25.02 20.59-33 4.55-7.98 11.3-20.8 14.99-28.5 3.7-7.7 9.72-21.2 13.39-30 3.67-8.8 9.52-24.55 13-35 3.48-10.45 8.14-25.98 10.36-34.5 2.22-8.52 5.16-20.9 6.53-27.5 1.37-6.6 3.22-16.5 4.1-22 0.88-5.5 2.25-15.85 3.03-23 0.79-7.15 1.89-21.77 2.45-32.5 0.67-12.95 0.68-27.23 0.03-42.5-0.54-12.65-1.88-30.88-2.98-40.5-1.1-9.63-3.17-23.8-4.61-31.5-1.43-7.7-4.33-20.98-6.44-29.5-2.1-8.52-5.47-20.9-7.47-27.5-2.01-6.6-6.02-18.52-8.92-26.5-2.9-7.98-8.09-21.02-11.53-29-3.44-7.98-10.01-21.93-14.6-31-4.59-9.08-12.08-22.68-16.64-30.23-4.57-7.55-12.89-20.38-18.5-28.5-5.61-8.12-15.05-20.85-20.98-28.27-5.92-7.43-18.66-21.54-28.3-31.36-9.63-9.82-21.79-21.56-27.02-26.09-5.23-4.53-14-11.82-19.5-16.19-5.5-4.37-13.83-10.69-18.5-14.03-4.67-3.35-14.35-9.89-21.5-14.53-7.15-4.64-16.6-10.49-21-13-4.4-2.5-13.85-7.48-21-11.06-7.15-3.58-20.65-9.75-30-13.7-9.35-3.96-24.88-9.81-34.5-12.99-9.63-3.19-24.7-7.63-33.5-9.88-8.8-2.25-22.08-5.2-29.5-6.56-7.42-1.36-20.92-3.4-30-4.53-9.08-1.14-25.27-2.51-36-3.06-10.73-0.55-22.42-0.94-26-0.86-3.58 0.08-13.92 0.49-23 0.92z"/>
</svg>